<svg width="48" height="321" viewBox="0 0 48 321" fill="none" xmlns="http://www.w3.org/2000/svg">
<g clip-path="url(#clip0_20021_169)">
<mask id="mask0_20021_169" style="mask-type:alpha" maskUnits="userSpaceOnUse" x="0" y="0" width="48" height="190">
<path fill-rule="evenodd" clip-rule="evenodd" d="M47.4505 189.999C47.4505 187.947 46.6117 185.983 45.1287 184.564L37.902 177.649C28.2595 168.422 28.7934 152.857 39.0454 144.313C44.3712 139.874 47.4505 133.299 47.4505 126.366L47.4505 -6.10352e-05H16.4505L16.4505 126.366C16.4505 133.002 13.503 139.296 8.40519 143.545C-2.30531 152.471 -2.86304 168.732 7.21064 178.371L14.4373 185.287C15.7232 186.517 16.4505 188.22 16.4505 189.999H47.4505Z" fill="black"/>
</mask>
<g mask="url(#mask0_20021_169)">
<g filter="url(#filter0_f_20021_169)">
<path fill-rule="evenodd" clip-rule="evenodd" d="M68.4505 190C68.4505 187.947 67.6117 185.983 66.1287 184.564L58.902 177.649C49.2595 168.422 49.7934 152.858 60.0454 144.313C65.3712 139.874 68.4505 133.299 68.4505 126.366L68.4505 6.10352e-05H37.4505L37.4505 126.366C37.4505 133.002 34.503 139.296 29.4052 143.545C18.6947 152.471 18.137 168.732 28.2106 178.371L35.4373 185.287C36.7232 186.517 37.4505 188.22 37.4505 190H68.4505Z" fill="#4798FF"/>
<path fill-rule="evenodd" clip-rule="evenodd" d="M68.4505 190C68.4505 187.947 67.6117 185.983 66.1287 184.564L58.902 177.649C49.2595 168.422 49.7934 152.858 60.0454 144.313C65.3712 139.874 68.4505 133.299 68.4505 126.366L68.4505 6.10352e-05H37.4505L37.4505 126.366C37.4505 133.002 34.503 139.296 29.4052 143.545C18.6947 152.471 18.137 168.732 28.2106 178.371L35.4373 185.287C36.7232 186.517 37.4505 188.22 37.4505 190H68.4505Z" stroke="#4798FF"/>
</g>
</g>
</g>
<g clip-path="url(#clip1_20021_169)">
<mask id="mask1_20021_169" style="mask-type:alpha" maskUnits="userSpaceOnUse" x="0" y="131" width="48" height="190">
<path fill-rule="evenodd" clip-rule="evenodd" d="M47.4505 131C47.4505 133.053 46.6117 135.016 45.1287 136.436L37.902 143.351C28.2595 152.578 28.2479 169.955 38.5 178.5C43.8258 182.939 47 189.067 47 196L47.4505 321H16.4505L16.4505 194.634C16.4505 187.997 13.503 181.704 8.40519 177.455C-2.30531 168.528 -2.86304 152.268 7.21064 142.628L14.4373 135.713C15.7232 134.483 16.4505 132.78 16.4505 131H47.4505Z" fill="black"/>
</mask>
<g mask="url(#mask1_20021_169)">
<g filter="url(#filter1_f_20021_169)">
<path fill-rule="evenodd" clip-rule="evenodd" d="M68.4505 131C68.4505 133.053 67.6117 135.016 66.1287 136.435L58.902 143.351C49.2595 152.578 49.7934 168.142 60.0454 176.687C65.3712 181.126 68.4505 187.701 68.4505 194.634L68.4505 321H37.4505L37.4505 194.634C37.4505 187.997 34.503 181.704 29.4052 177.455C18.6947 168.528 18.137 152.268 28.2106 142.628L35.4373 135.713C36.7232 134.482 37.4505 132.78 37.4505 131H68.4505Z" fill="#4798FF"/>
<path fill-rule="evenodd" clip-rule="evenodd" d="M68.4505 131C68.4505 133.053 67.6117 135.016 66.1287 136.435L58.902 143.351C49.2595 152.578 49.7934 168.142 60.0454 176.687C65.3712 181.126 68.4505 187.701 68.4505 194.634L68.4505 321H37.4505L37.4505 194.634C37.4505 187.997 34.503 181.704 29.4052 177.455C18.6947 168.528 18.137 152.268 28.2106 142.628L35.4373 135.713C36.7232 134.482 37.4505 132.78 37.4505 131H68.4505Z" stroke="#4798FF"/>
</g>
</g>
</g>
<path d="M46.9504 3.05176e-05L46.9504 126.366C46.9504 133.151 43.937 139.585 38.7252 143.929V143.929C28.2439 152.664 27.6981 168.577 37.5562 178.01L39.2484 179.629C44.168 184.337 46.9504 190.85 46.9504 197.66L46.9504 321" stroke="#1E1E1E"/>
<defs>
<filter id="filter0_f_20021_169" x="1" y="-20" width="87.4505" height="230" filterUnits="userSpaceOnUse" color-interpolation-filters="sRGB">
<feFlood flood-opacity="0" result="BackgroundImageFix"/>
<feBlend mode="normal" in="SourceGraphic" in2="BackgroundImageFix" result="shape"/>
<feGaussianBlur stdDeviation="9.75" result="effect1_foregroundBlur_20021_169"/>
</filter>
<filter id="filter1_f_20021_169" x="1" y="111" width="87.4505" height="229.999" filterUnits="userSpaceOnUse" color-interpolation-filters="sRGB">
<feFlood flood-opacity="0" result="BackgroundImageFix"/>
<feBlend mode="normal" in="SourceGraphic" in2="BackgroundImageFix" result="shape"/>
<feGaussianBlur stdDeviation="9.75" result="effect1_foregroundBlur_20021_169"/>
</filter>
<clipPath id="clip0_20021_169">
<rect width="47" height="161" fill="white"/>
</clipPath>
<clipPath id="clip1_20021_169">
<rect width="47" height="160" fill="white" transform="translate(0 161)"/>
</clipPath>
</defs>
</svg>
